Coordinates
version=1
nRows=21
nColumns=12
inDegrees=yes

Units are S.I. units (second, meters, Newtons, ...)
Angles are in degrees

endheader
time	SC_y	SC_z	SC_x	AC_y	AC_z	AC_x	GH_y	GH_z	GH_yy	EL_x	PS_y
       0.0              -16.58           33.1           61.5          40.53          7.936          17.84          156.8          77.48         -100.4          96.54          18.94
   0.00705              -16.58           33.1          61.49          40.53          7.934          17.84          156.7          77.48         -100.3          96.55          18.96
    0.0141              -16.58           33.1          61.49          40.53          7.931          17.83          156.7          77.47         -100.3          96.55          18.97
   0.02115              -16.58           33.1          61.48          40.53          7.928          17.83          156.7          77.47         -100.3          96.55          18.99
    0.0282              -16.58           33.1          61.48          40.54          7.925          17.82          156.6          77.46         -100.3          96.56          19.01
   0.03525              -16.58           33.1          61.48          40.54          7.922          17.82          156.6          77.46         -100.3          96.56          19.03
    0.0423              -16.58           33.1          61.47          40.54          7.919          17.81          156.6          77.45         -100.3          96.57          19.05
   0.04935              -16.57           33.1          61.47          40.54          7.915          17.81          156.5          77.45         -100.3          96.57          19.08
    0.0564              -16.57          33.09          61.46          40.55          7.911           17.8          156.5          77.44         -100.3          96.58           19.1
   0.06345              -16.57          33.09          61.46          40.55          7.907          17.79          156.4          77.43         -100.3          96.59          19.13
    0.0705              -16.57          33.09          61.45          40.55          7.902          17.78          156.4          77.42         -100.3          96.59          19.16
   0.07755              -16.57          33.09          61.44          40.56          7.897          17.78          156.3          77.41         -100.3           96.6          19.19
    0.0846              -16.57          33.09          61.44          40.56          7.892          17.77          156.3           77.4         -100.2          96.61          19.22
   0.09165              -16.57          33.09          61.43          40.56          7.886          17.76          156.2          77.39         -100.2          96.62          19.26
    0.0987              -16.57          33.09          61.42          40.57           7.88          17.75          156.1          77.38         -100.2          96.62           19.3
    0.1058              -16.56          33.09          61.41          40.57          7.873          17.74          156.1          77.37         -100.2          96.63          19.34
    0.1128              -16.56          33.09           61.4          40.58          7.866          17.72          156.0          77.36         -100.2          96.64          19.38
    0.1199              -16.56          33.09          61.39          40.58          7.858          17.71          155.9          77.34         -100.2          96.66          19.43
    0.1269              -16.56          33.09          61.38          40.59          7.849           17.7          155.8          77.33         -100.1          96.67          19.49
     0.134              -16.55          33.09          61.37           40.6          7.839          17.68          155.7          77.31         -100.1          96.68          19.55
     0.141              -16.55          33.08          61.35          40.61          7.829          17.66          155.6          77.29         -100.1           96.7          19.61
